<svg width="489" height="189" viewBox="0 0 489 189" fill="none" xmlns="http://www.w3.org/2000/svg">
<path d="M0.991922 152.54H88.2611V184.5H125.015V152.54H147.565V121.734H125.015V2.68181H76.8975L0.991922 122.266V152.54ZM88.9713 121.734H39.6993V120.313L87.5509 44.5852H88.9713V121.734ZM243.967 188.495C289.688 188.495 317.298 153.694 317.386 93.7685C317.475 34.2869 289.51 0.196016 243.967 0.196016C198.335 0.196016 170.636 34.1982 170.547 93.7685C170.369 153.516 198.157 188.406 243.967 188.495ZM243.967 156.624C223.104 156.624 209.609 135.672 209.698 93.7685C209.787 52.4865 223.193 31.7124 243.967 31.7124C264.652 31.7124 278.146 52.4865 278.146 93.7685C278.235 135.672 264.741 156.624 243.967 156.624ZM341.545 152.54H428.814V184.5H465.568V152.54H488.118V121.734H465.568V2.68181H417.45L341.545 122.266V152.54ZM429.524 121.734H380.252V120.313L428.104 44.5852H429.524V121.734Z" fill="black"/>
</svg>
